<svg width="30" height="29" viewBox="0 0 30 29" fill="none" xmlns="http://www.w3.org/2000/svg">
<path d="M21.6354 19.4507L16.3267 19.4499C13.3953 19.4507 11.0183 17.0737 11.0189 14.1421C11.0183 13.6811 11.0971 13.2411 11.206 12.8151L13.673 12.8152C13.7907 12.8147 13.897 12.8532 14.0061 12.8825C13.8 13.2591 13.6731 13.6838 13.673 14.1421C13.6725 15.6062 14.8642 16.7959 16.3268 16.7959L21.6347 16.796C23.0993 16.7961 24.2897 15.6056 24.2891 14.1416C24.2894 12.6786 23.099 11.4882 21.6351 11.4876L19.7466 11.4887C19.2789 10.4246 18.534 9.51932 17.613 8.8338L21.6351 8.83386C24.5671 8.83413 26.9434 11.2105 26.9437 14.1425C26.9433 17.0736 24.5666 19.4504 21.6354 19.4507ZM10.2533 16.7966L8.3641 16.7969C6.90108 16.7965 5.71031 15.6058 5.70981 14.1426C5.7104 12.6785 6.90083 11.4881 8.36462 11.4878L13.6729 11.4881C15.1373 11.4882 16.3273 12.6782 16.3268 14.1421C16.3267 14.5994 16.2 15.0242 15.9951 15.4013C16.1051 15.4304 16.2095 15.4691 16.3268 15.469L18.7932 15.4695C18.9042 15.0434 18.9811 14.6034 18.9806 14.142C18.9813 11.2111 16.6041 8.83386 13.6724 8.83386L8.36456 8.83395C5.43262 8.83454 3.05654 11.2106 3.05608 14.1424C3.05654 17.0736 5.4332 19.4503 8.36437 19.4507L12.3874 19.4509C11.4653 18.7656 10.7209 17.8594 10.2533 16.7966Z" fill="#5EDFFF"/>
</svg>
